HIERARCHY
ROOT Hips
{
    OFFSET 0.000000 0.000000 0.000000
    CHANNELS 6 Xposition Yposition Zposition Zrotation Xrotation Yrotation
    JOINT Spine
    {
        OFFSET -0.000000 7.236184 0.000000
        CHANNELS 3 Zrotation Xrotation Yrotation
        JOINT Spine1
        {
            OFFSET -0.000000 20.420147 0.000000
            CHANNELS 3 Zrotation Xrotation Yrotation
            JOINT Neck
            {
                OFFSET -0.000000 20.336288 1.848754
                CHANNELS 3 Zrotation Xrotation Yrotation
                JOINT Head
                {
                    OFFSET -0.000000 12.354461 -1.764923
                    CHANNELS 3 Zrotation Xrotation Yrotation
                    End Site
                    {
                        OFFSET -0.000000 22.061537 0.000000
                    }
                }
            }
            JOINT LeftShoulder
            {
                OFFSET 3.573296 18.396038 -0.314103
                CHANNELS 3 Zrotation Xrotation Yrotation
                JOINT LeftArm
                {
                    OFFSET 10.880760 0.000000 0.000000
                    CHANNELS 3 Zrotation Xrotation Yrotation
                    JOINT LeftForeArm
                    {
                        OFFSET 27.185530 0.000000 0.000000
                        CHANNELS 3 Zrotation Xrotation Yrotation
                        JOINT LeftHand
                        {
                            OFFSET 27.825975 0.000000 0.000000
                            CHANNELS 3 Zrotation Xrotation Yrotation
                            End Site
                            {
                                OFFSET 13.236923 0.000000 0.000000
                            }
                        }
                    }
                }
            }
            JOINT RightShoulder
            {
                OFFSET -3.474926 18.396038 -0.314103
                CHANNELS 3 Zrotation Xrotation Yrotation
                JOINT RightArm
                {
                    OFFSET -10.880760 0.000000 0.000000
                    CHANNELS 3 Zrotation Xrotation Yrotation
                    JOINT RightForeArm
                    {
                        OFFSET -27.185530 0.000000 0.000000
                        CHANNELS 3 Zrotation Xrotation Yrotation
                        JOINT RightHand
                        {
                            OFFSET -27.825975 0.000000 0.000000
                            CHANNELS 3 Zrotation Xrotation Yrotation
                            End Site
                            {
                                OFFSET -13.236923 0.000000 0.000000
                            }
                        }
                    }
                }
            }
        }
    }
    JOINT LeftUpLeg
    {
        OFFSET 8.824615 0.000000 0.000000
        CHANNELS 3 Zrotation Xrotation Yrotation
        JOINT LeftLeg
        {
            OFFSET -0.000000 -35.111282 0.000000
            CHANNELS 3 Zrotation Xrotation Yrotation
            JOINT LeftFoot
            {
                OFFSET -0.000000 -42.324711 0.000000
                CHANNELS 3 Zrotation Xrotation Yrotation
                JOINT LeftToeBase
                {
                    OFFSET -0.000000 -5.735999 13.236923
                    CHANNELS 3 Zrotation Xrotation Yrotation
                    End Site
                    {
                        OFFSET -0.000000 0.000000 3.529846
                    }
                }
            }
        }
    }
    JOINT RightUpLeg
    {
        OFFSET -8.824615 0.000000 0.000000
        CHANNELS 3 Zrotation Xrotation Yrotation
        JOINT RightLeg
        {
            OFFSET -0.000000 -35.111282 0.000000
            CHANNELS 3 Zrotation Xrotation Yrotation
            JOINT RightFoot
            {
                OFFSET -0.000000 -42.324711 0.000000
                CHANNELS 3 Zrotation Xrotation Yrotation
                JOINT RightToeBase
                {
                    OFFSET -0.000000 -5.735999 13.236923
                    CHANNELS 3 Zrotation Xrotation Yrotation
                    End Site
                    {
                        OFFSET -0.000000 0.000000 3.529846
                    }
                }
            }
        }
    }
}
MOTION
Frames:    9
Frame Time:    0.008333
-21.003981    89.511955    90.563026    -19.277676    24.436094    112.922081    -3.047800    -10.834306    -0.399284    -3.321604    7.231740    0.099423    -4.876534    26.312033    14.962613    8.029449    2.056566    16.058315    5.566985    8.932013    -2.260699    -43.199097    10.114717    -19.655306    18.461672    6.579823    -15.093802    54.665623    7.771046    -2.450383    1.270780    16.342772    -7.488209    35.447109    35.627300    39.314877    -3.013508    -20.367563    125.666214    -12.047460    -12.414329    -22.620163    45.626732    -48.494324    19.173302    -32.704525    59.277737    56.290787    -4.806761    21.727560    -24.686840    -1.177758    -3.153694    1.313139    -26.987440    -15.361837    -6.996608    0.096327    17.188990    5.057996    -8.486908    -4.498502    -18.796492    -0.865830    -0.986290    0.937739    
-21.012434    89.606323    90.542969    -19.406662    24.951481    113.035469    -3.402500    -10.795522    -0.484465    -3.526246    7.251064    0.060342    -4.967512    26.466808    15.061297    8.186661    2.377490    16.140406    5.688736    8.593916    -2.480763    -42.634476    9.411915    -19.245100    17.916721    6.481303    -14.074000    54.286209    7.759437    -1.836785    1.330229    16.475237    -7.590343    35.637684    35.767849    39.382191    -3.155869    -20.365871    125.719963    -11.826682    -12.188948    -22.508884    47.613567    -48.219402    20.010817    -31.787222    58.693428    55.507065    -4.611517    21.422470    -24.384890    -1.210881    -3.312503    1.350478    -27.475355    -15.315495    -7.067426    -0.046004    17.278297    5.198948    -8.539607    -4.441445    -18.885183    -0.789295    -1.025408    0.854894    
-21.017197    89.694397    90.521690    -19.526686    25.453426    113.144707    -3.760955    -10.764457    -0.574360    -3.705764    7.290317    0.016017    -5.059714    26.607843    15.161708    8.332167    2.672631    16.224134    5.825279    8.262314    -2.711275    -42.079407    8.799305    -18.834892    17.361055    6.335551    -13.074734    53.882751    7.726680    -1.186645    1.390422    16.600025    -7.686383    35.816284    35.901318    39.436169    -3.297555    -20.382984    125.774925    -11.628045    -11.976244    -22.420202    49.447746    -47.856846    20.758535    -30.534327    57.901569    54.415867    -4.403073    21.113117    -24.070206    -1.242457    -3.482642    1.386146    -27.948854    -15.270995    -7.126097    -0.181334    17.381697    5.331266    -8.597975    -4.387563    -18.980808    -0.720114    -1.067146    0.780010    
-21.018658    89.775620    90.499969    -19.636909    25.935347    113.252090    -4.117587    -10.742423    -0.670252    -3.858488    7.350002    -0.034995    -5.155040    26.734112    15.263582    8.464929    2.942430    16.309242    5.976143    7.940740    -2.949916    -41.540283    8.285576    -18.425556    16.801401    6.142047    -12.103686    53.460991    7.668265    -0.509573    1.447741    16.713564    -7.773206    35.983356    36.022972    39.476093    -3.433866    -20.410187    125.831779    -11.451570    -11.776047    -22.356060    51.108475    -47.419769    21.409040    -28.988298    56.895397    53.051102    -4.183768    20.786623    -23.734608    -1.273455    -3.666460    1.421229    -28.401844    -15.226727    -7.170979    -0.307878    17.494972    5.450331    -8.660362    -4.336653    -19.082378    -0.660585    -1.110304    0.715573    
-21.017221    89.850288    90.478455    -19.737696    26.395067    113.361031    -4.470323    -10.729698    -0.773671    -3.983636    7.429409    -0.094828    -5.257136    26.845665    15.367352    8.586883    3.191251    16.395800    6.140507    7.631250    -3.195739    -41.017632    7.870920    -18.017056    16.238962    5.904082    -11.158579    53.023674    7.582589    0.187165    1.498992    16.813871    -7.849548    36.142441    36.127747    39.500725    -3.560574    -20.436235    125.892975    -11.295121    -11.585104    -22.316252    52.594788    -46.917969    21.962107    -27.194345    55.659950    51.454838    -3.955886    20.429474    -23.367233    -1.303555    -3.861215    1.455367    -28.832161    -15.180363    -7.201508    -0.425623    17.614473    5.552487    -8.725178    -4.288540    -19.189074    -0.611371    -1.153919    0.662303    
-21.013290    89.918114    90.457848    -19.829033    26.827183    113.474121    -4.814691    -10.726242    -0.885154    -4.079411    7.525808    -0.164523    -5.369045    26.943447    15.472521    8.700333    3.420242    16.483297    6.316138    7.339513    -3.445763    -40.516735    7.555297    -17.615278    15.677975    5.631723    -10.243573    52.578705    7.472211    0.888155    1.540488    16.899763    -7.915005    36.295868    36.210636    39.509605    -3.673605    -20.451910    125.961227    -11.157186    -11.401755    -22.300579    53.895794    -46.364143    22.411972    -25.218121    54.188904    49.692387    -3.724086    20.033001    -22.962225    -1.330679    -4.058825    1.486218    -29.235252    -15.130463    -7.216725    -0.532873    17.736748    5.633933    -8.790510    -4.243976    -19.300213    -0.572152    -1.196827    0.619854    
-21.007256    89.979240    90.438614    -19.911427    27.228695    113.594086    -5.147748    -10.731307    -1.005371    -4.145028    7.635922    -0.244794    -5.494564    27.029074    15.578838    8.808991    3.631488    16.571293    6.500602    7.070237    -3.697311    -40.040619    7.332801    -17.226290    15.120007    5.338527    -9.359081    52.131958    7.343157    1.578784    1.569109    16.970722    -7.970264    36.446053    36.268917    39.502903    -3.770460    -20.450542    126.039703    -11.035575    -11.223857    -22.307577    55.009747    -45.768517    22.754553    -23.124407    52.475681    47.830498    -3.491800    19.590021    -22.514130    -1.353043    -4.247868    1.511750    -29.608774    -15.075395    -7.217567    -0.629148    17.858829    5.692511    -8.854792    -4.203463    -19.414936    -0.542430    -1.238055    0.587688    
-20.999462    90.033821    90.421127    -19.985088    27.597187    113.723129    -5.466726    -10.743538    -1.134314    -4.180323    7.756185    -0.336448    -5.635365    27.104347    15.685566    8.915135    3.827007    16.659044    6.691401    6.826483    -3.947590    -39.593498    7.195251    -16.855732    14.566833    5.040577    -8.506487    51.689640    7.203959    2.243465    1.581854    17.026684    -8.015881    36.594997    36.301785    39.481083    -3.850173    -20.429264    126.131927    -10.928448    -11.050516    -22.334679    55.936096    -45.140579    22.984747    -20.977274    50.520382    45.935699    -3.261743    19.096151    -22.020144    -1.369400    -4.414774    1.530523    -29.950911    -15.013531    -7.206503    -0.714366    17.978165    5.728225    -8.917101    -4.167335    -19.532412    -0.521251    -1.276615    0.564772    
-20.990284    90.081993    90.405563    -20.050327    27.930481    113.862671    -5.768156    -10.761563    -1.271677    -4.186501    7.882854    -0.439333    -5.792242    27.171587    15.792035    9.020589    4.007102    16.745810    6.885308    6.610169    -4.193372    -39.180756    7.130203    -16.509066    14.020707    4.755405    -7.690013    51.257984    7.064857    2.865552    1.576851    17.067911    -8.052301    36.743599    36.308388    39.444473    -3.911812    -20.386242    126.241989    -10.835141    -10.881584    -22.377129    56.675140    -44.490288    23.096565    -18.839214    48.335094    44.074936    -3.036185    18.551207    -21.483055    -1.378856    -4.544604    1.541482    -30.260483    -14.944048    -7.188013    -0.788527    18.092943    5.743230    -8.977253    -4.135916    -19.651796    -0.507734    -1.311619    0.550155    
